# xmcd CD database file
#
# Track frame offsets:
#	150
#	14737
#	30292
#	43505
#	58372
#	73370
#	86677
#	103312
#	115992
#	128665
#
# Disc length: 1935 seconds
#
# Revision: 1
# Processed by: cddbd v1.5.2PL0 Copyright (c) Steve Scherf et al.
# Submitted via: CDex 1.70beta2
#
DISCID=90078d0a
DTITLE=Masson, Kiley Joe - Cdn. - Princeton, ON - In The Key of Country
DYEAR=1900
DGENRE=Country
TTITLE0=It's Been Six Years
TTITLE1=Your Love Has Passed Away
TTITLE2=It Tears Me Appart
TTITLE3=Hey Bueddy
TTITLE4=Honky Tonk Heaven
TTITLE5=Sunhset Cheatin' Game
TTITLE6=Poor Me
TTITLE7=Older Thjan Me
TTITLE8=Sittin' In the Corner of A Barroom
TTITLE9=Three Quater Time
EXTD=
EXTT0=
EXTT1=
EXTT2=
EXTT3=
EXTT4=
EXTT5=
EXTT6=
EXTT7=
EXTT8=
EXTT9=
PLAYORDER=
